# xmcd
#
# Track frame offsets:
#	150
#	19385
#	35619
#	51129
#	70391
#	88306
#	107158
#	125226
#	146111
#	164655
#	183890
#	200124
#	215634
#	234896
#	252811
#	271663
#	289731
#	310616
#
# Disc length: 4386
#
# Revision: 1
# Processed by: cddbd v1.5.2PL0 Copyright (c) Steve Scherf et al.
# Submitted via: kJams Pro (development) 1.0patch47.22
#
DISCID=18112012
DTITLE=Corinne Bailey Rae - PS 6081
DYEAR=2007
DGENRE=Vocal
TTITLE0=Corinne Bailey Rae - I'd Like To
TTITLE1=Corinne Bailey Rae - Put Your Records On
TTITLE2=Corinne Bailey Rae - Trouble Sleeping
TTITLE3=Corinne Bailey Rae - Breathless
TTITLE4=Corinne Bailey Rae - Butterfly
TTITLE5=Corinne Bailey Rae - Like A Star
TTITLE6=Corinne Bailey Rae - Enchantment
TTITLE7=Corinne Bailey Rae - Till It Happens To You
TTITLE8=Corinne Bailey Rae - Choux Pastry Heart
TTITLE9=Corinne Bailey Rae - I'd Like To
TTITLE10=Corinne Bailey Rae - Put Your Records On
TTITLE11=Corinne Bailey Rae - Trouble Sleeping
TTITLE12=Corinne Bailey Rae - Breathless
TTITLE13=Corinne Bailey Rae - Butterfly
TTITLE14=Corinne Bailey Rae - Like A Star
TTITLE15=Corinne Bailey Rae - Enchantment
TTITLE16=Corinne Bailey Rae - Till It Happens To You
TTITLE17=Corinne Bailey Rae - Choux Pastry Heart
EXTD=
EXTT0=
EXTT1=
EXTT2=
EXTT3=
EXTT4=
EXTT5=
EXTT6=
EXTT7=
EXTT8=
EXTT9=
EXTT10=
EXTT11=
EXTT12=
EXTT13=
EXTT14=
EXTT15=
EXTT16=
EXTT17=
PLAYORDER=
